<svg height='100px' width='100px'  fill="#000000" xmlns:x="http://ns.adobe.com/Extensibility/1.0/" xmlns:i="http://ns.adobe.com/AdobeIllustrator/10.0/" xmlns:graph="http://ns.adobe.com/Graphs/1.0/" xmlns="http://www.w3.org/2000/svg" xmlns:xlink="http://www.w3.org/1999/xlink" version="1.1" x="0px" y="0px" viewBox="0 0 100 100" enable-background="new 0 0 100 100" xml:space="preserve"><g><g i:extraneous="self"><path d="M70.343,91.344C62.544,94.836,55.784,96,46.555,96C24.978,96,6,80.611,6,55.267C6,28.888,25.368,5.999,54.614,5.999    C77.622,5.999,94,21.646,94,43.37c0,19.009-10.659,30.905-24.697,30.905c-6.109,0-10.528-3.233-11.179-9.957h-0.26    c-4.16,6.466-9.879,9.957-16.898,9.957c-8.319,0-14.558-6.336-14.558-16.939c0-15.905,11.829-30.13,30.546-30.13    c5.719,0,12.218,1.423,15.338,3.104l-3.899,24.052c-1.17,7.63-0.26,11.121,3.38,11.25c5.589,0.259,12.608-6.854,12.608-21.854    c0-16.938-10.919-29.87-31.066-29.87c-20.018,0-37.306,15.388-37.306,40.215c0,21.725,13.778,33.88,33.146,33.88    c6.629,0,13.779-1.422,18.978-4.009L70.343,91.344z M58.904,37.939c-1.04-0.259-2.47-0.518-4.03-0.518    c-8.579,0-15.339,8.405-15.339,18.361c0,4.915,2.21,8.018,6.37,8.018c4.939,0,10.009-6.077,11.049-13.577L58.904,37.939z"></path></g></g></svg>