<svg height='100px' width='100px'  fill="#000000" xmlns="http://www.w3.org/2000/svg" xmlns:xlink="http://www.w3.org/1999/xlink" version="1.1" x="0px" y="0px" viewBox="0 0 100 100" style="enable-background:new 0 0 100 100;" xml:space="preserve"><path d="M21,21.5c0-3.9,3.1-7,7-7s7,3.1,7,7s-3.1,7-7,7S21,25.4,21,21.5z M28,32.5c-8.5,0-15.5,6.6-16,15H44  C43.5,39.1,36.5,32.5,28,32.5z M65,59.5c0,3.9,3.1,7,7,7s7-3.1,7-7s-3.1-7-7-7S65,55.6,65,59.5z M72,70.5c-8.5,0-15.5,6.6-16,15H88  C87.5,77.1,80.5,70.5,72,70.5z M60,30.5c0.5,0,1-0.2,1.4-0.6c0.8-0.8,0.8-2,0-2.8l-4.6-4.6H70v18c0,1.1,0.9,2,2,2s2-0.9,2-2V21  c0-0.1,0-0.2,0-0.2c0-0.1,0-0.2,0-0.2c0-1.1-0.9-2-2-2H56.8l4.6-4.6c0.8-0.8,0.8-2,0-2.8c-0.8-0.8-2-0.8-2.8,0l-8,8l0,0  c-0.1,0.1-0.2,0.2-0.2,0.3c0,0-0.1,0.1-0.1,0.2c0,0.1-0.1,0.1-0.1,0.2c0,0.1,0,0.1-0.1,0.2c0,0.1,0,0.1-0.1,0.2  c-0.1,0.3-0.1,0.5,0,0.8c0,0.1,0,0.1,0.1,0.2c0,0.1,0,0.1,0.1,0.2c0,0.1,0.1,0.1,0.1,0.2c0,0.1,0.1,0.1,0.1,0.2  c0.1,0.1,0.2,0.2,0.2,0.3l0,0l8,8C59,30.3,59.5,30.5,60,30.5z M41.9,78.9c0-0.1,0-0.1-0.1-0.2c0-0.1-0.1-0.1-0.1-0.2  c0,0,0-0.1-0.1-0.1c-0.1-0.1-0.2-0.2-0.2-0.3l0,0l-8-8c-0.8-0.8-2-0.8-2.8,0c-0.8,0.8-0.8,2,0,2.8l4.6,4.6H22v-18c0-1.1-0.9-2-2-2  s-2,0.9-2,2V79c0,0.1,0,0.2,0,0.2c0,0.1,0,0.2,0,0.2c0,1.1,0.9,2,2,2h15.2l-4.6,4.6c-0.8,0.8-0.8,2,0,2.8c0.4,0.4,0.9,0.6,1.4,0.6  s1-0.2,1.4-0.6l8-8l0,0c0.1-0.1,0.2-0.2,0.2-0.3c0,0,0.1-0.1,0.1-0.1c0-0.1,0.1-0.1,0.1-0.2c0-0.1,0-0.1,0.1-0.2  c0-0.1,0-0.1,0.1-0.2c0.1-0.3,0.1-0.5,0-0.8C41.9,79,41.9,79,41.9,78.9z"></path></svg>